<svg class="stardust-icon" viewBox="0 0 491.7 257.3">
<style type="text/css">
	.st0{fill:#FFFFFF;stroke:#000000;stroke-width:4;stroke-miterlimit:10;}
	.st1{fill:#FFFFFF;}
</style>
<g id="XMLID_63_">
	<g id="XMLID_20_">
		<path id="XMLID_12_" class="st0" d="M183.3,214.9l23.7-79.5l-62.5-48.9l77.7,0.1L245.8,7l23.7,79.5h77.7l-62.5,48.9l23.7,79.4
			l-62.5-49L183.3,214.9z"/>
		<path id="XMLID_3_" d="M230.6,147.3l5.9-20.3l-16.1-12.7h19.4l5.9-19.4l5.9,19.4h19.4L256,127l5.9,19.4l-16.1-11.8L230.6,147.3z"
			/>
	</g>
	<g id="XMLID_2_">
		<g id="Bolt">
			<polygon id="XMLID_21_" class="st1" points="385.9,115.7 366.2,115.7 420.7,14.6 477.6,14.6 420,100.1 438.9,100.1 335,210.2 			
				"/>
			<path id="XMLID_14_" d="M474.4,16.3l-57.6,85.5h18.1l-92.2,97.7l46.1-85.5H369l52.7-97.7H474.4 M480.8,12.9h-6.5h-52.7h-2l-1,1.8
				L366,112.4l-2.7,5.1h5.7h14l-43.4,80.4l-12.4,22.9l17.9-19l92.2-97.7l5.5-5.8h-8h-11.7l54-80.2L480.8,12.9L480.8,12.9z"/>
		</g>
		<path id="Bolt_2_" d="M373.3,123h-19.8L415.9,7.3h75.8l-57.6,85.5h22L300.9,257.3L373.3,123z M389.7,113.4l-44.8,83.1l88.7-94
			h-17.8l57.6-85.5h-51.5l-52,96.4H389.7z"/>
		<path id="Bolt_1_" class="st1" d="M479.8,13.5L422.2,99h19.3l-112,118.7l54.4-100.9h-19.8l55.7-103.3H479.8 M485.3,10.7h-5.4h-60
			H418l-0.8,1.5l-55.7,103.3l-2.2,4h4.9H379l-52.2,96.9L316.3,236l15.5-16.4l112-118.7l4.4-4.6h-6.6h-13.9L482.4,15L485.3,10.7
			L485.3,10.7z"/>
	</g>
	<g id="XMLID_13_">
		<g id="Bolt_5_">
			<polygon id="XMLID_27_" class="st1" points="105.8,115.7 125.6,115.7 71,14.6 14.1,14.6 71.7,100.1 52.8,100.1 156.7,210.2 			
				"/>
			<path id="XMLID_23_" d="M17.3,16.3H70l52.7,97.7h-19.8l46.1,85.5l-92.2-97.7h18.1L17.3,16.3 M10.9,12.9l3.6,5.4l54,80.2H56.8h-8
				l5.5,5.8l92.2,97.7l17.9,19L152,197.9l-43.4-80.4h14h5.7l-2.7-5.1L73,14.7l-1-1.8h-2H17.3H10.9L10.9,12.9z"/>
		</g>
		<path id="Bolt_4_" d="M190.8,257.3L35.6,92.8h22L0,7.3h75.8L138.2,123h-19.8L190.8,257.3z M121.8,113.4l-52-96.4H18.3L76,102.4
			H58.1l88.7,94L102,113.4H121.8z"/>
		<path id="Bolt_3_" class="st1" d="M11.9,13.5h60l55.7,103.3h-19.8l54.4,100.9L50.2,99h19.3L11.9,13.5 M6.5,10.7L9.3,15l54.7,81.2
			H50.2h-6.6l4.4,4.6l112,118.7l15.5,16.4l-10.5-19.5l-52.2-96.9h14.9h4.9l-2.2-4L74.5,12.3l-0.8-1.5h-1.9h-60H6.5L6.5,10.7z"/>
	</g>
</g>
</svg>
